# xmcd CD database file
#
# Track frame offsets:
#	150
#	10662
#	27567
#	41249
#	54350
#	65769
#	78045
#	99732
#	113459
#	132388
#	145986
#	162259
#	172838
#	186631
#	199446
#	213181
#	230891
#	249896
#
# Disc length: 3515 seconds
#
# Revision: 0
# Processed by: cddbd v1.5.2PL0 Copyright (c) Steve Scherf et al.
# Submitted via: CDex 1.51
#
DISCID=fe0db912
DTITLE=Art Tatum - The Discovery of Jazz - CD2
DYEAR=2004
DGENRE=Jazz
TTITLE0=Honeysuckle Rose
TTITLE1=I Cover The Waterfront
TTITLE2=Hallelujah
TTITLE3=Don't Blame Me
TTITLE4=I Ain't Got Nobody
TTITLE5=Get Happy
TTITLE6=Have You Met Miss Jones
TTITLE7=Fine And Dandy
TTITLE8=I Don't Stand A Ghost Of A Chance
TTITLE9=How High The Moon
TTITLE10=Elegy
TTITLE11=Emaline
TTITLE12=Gershwin Medley
TTITLE13=Gone With The Wind
TTITLE14=Deep Purple
TTITLE15=Humoresque
TTITLE16=Flying Home
TTITLE17=Dixieland Band
EXTD=YEAR: 2004
EXTT0=
EXTT1=
EXTT2=
EXTT3=
EXTT4=
EXTT5=
EXTT6=
EXTT7=
EXTT8=
EXTT9=
EXTT10=
EXTT11=
EXTT12=
EXTT13=
EXTT14=
EXTT15=
EXTT16=
EXTT17=
PLAYORDER=
